<svg width="29" height="30" viewBox="0 0 29 30" fill="none" xmlns="http://www.w3.org/2000/svg">
<path d="M14.5 18.4091C16.3828 18.4091 17.9091 16.8828 17.9091 15C17.9091 13.1172 16.3828 11.5909 14.5 11.5909C12.6172 11.5909 11.0909 13.1172 11.0909 15C11.0909 16.8828 12.6172 18.4091 14.5 18.4091Z" stroke="#5C4B51" stroke-width="4" stroke-linecap="round" stroke-linejoin="round"/>
<path d="M22.9091 18.4091C22.7578 18.7518 22.7127 19.132 22.7795 19.5007C22.8464 19.8693 23.0221 20.2095 23.2841 20.4773L23.3523 20.5455C23.5636 20.7565 23.7312 21.0072 23.8456 21.2831C23.96 21.559 24.0188 21.8547 24.0188 22.1534C24.0188 22.4521 23.96 22.7478 23.8456 23.0237C23.7312 23.2996 23.5636 23.5503 23.3523 23.7614C23.1412 23.9727 22.8905 24.1403 22.6146 24.2547C22.3387 24.3691 22.043 24.4279 21.7443 24.4279C21.4456 24.4279 21.1499 24.3691 20.874 24.2547C20.5981 24.1403 20.3474 23.9727 20.1364 23.7614L20.0682 23.6932C19.8004 23.4312 19.4602 23.2555 19.0916 23.1886C18.7229 23.1218 18.3427 23.1669 18 23.3182C17.6639 23.4622 17.3773 23.7014 17.1753 24.0063C16.9734 24.3112 16.8651 24.6684 16.8636 25.0341V25.2273C16.8636 25.83 16.6242 26.4081 16.198 26.8343C15.7718 27.2606 15.1937 27.5 14.5909 27.5C13.9881 27.5 13.4101 27.2606 12.9838 26.8343C12.5576 26.4081 12.3182 25.83 12.3182 25.2273V25.125C12.3094 24.7489 12.1876 24.3841 11.9688 24.0781C11.7499 23.7721 11.444 23.539 11.0909 23.4091C10.7482 23.2578 10.368 23.2127 9.99933 23.2795C9.6307 23.3464 9.29054 23.5221 9.02273 23.7841L8.95455 23.8523C8.74347 24.0636 8.49281 24.2312 8.21691 24.3456C7.941 24.46 7.64526 24.5188 7.34659 24.5188C7.04792 24.5188 6.75218 24.46 6.47627 24.3456C6.20037 24.2312 5.94971 24.0636 5.73864 23.8523C5.52733 23.6412 5.35969 23.3905 5.24532 23.1146C5.13095 22.8387 5.07208 22.543 5.07208 22.2443C5.07208 21.9456 5.13095 21.6499 5.24532 21.374C5.35969 21.0981 5.52733 20.8474 5.73864 20.6364L5.80682 20.5682C6.06879 20.3004 6.24453 19.9602 6.31137 19.5916C6.37821 19.2229 6.33309 18.8427 6.18182 18.5C6.03777 18.1639 5.79859 17.8773 5.49371 17.6753C5.18884 17.4734 4.83158 17.3651 4.46591 17.3636H4.27273C3.66996 17.3636 3.09189 17.1242 2.66567 16.698C2.23945 16.2718 2 15.6937 2 15.0909C2 14.4881 2.23945 13.9101 2.66567 13.4838C3.09189 13.0576 3.66996 12.8182 4.27273 12.8182H4.375C4.75113 12.8094 5.11591 12.6876 5.42193 12.4688C5.72795 12.2499 5.96104 11.944 6.09091 11.5909C6.24218 11.2482 6.2873 10.868 6.22046 10.4993C6.15362 10.1307 5.97788 9.79054 5.71591 9.52273L5.64773 9.45455C5.43642 9.24347 5.26878 8.99281 5.15441 8.71691C5.04004 8.441 4.98117 8.14526 4.98117 7.84659C4.98117 7.54792 5.04004 7.25218 5.15441 6.97627C5.26878 6.70037 5.43642 6.44971 5.64773 6.23864C5.8588 6.02733 6.10946 5.85969 6.38536 5.74532C6.66127 5.63095 6.95701 5.57208 7.25568 5.57208C7.55435 5.57208 7.8501 5.63095 8.126 5.74532C8.40191 5.85969 8.65256 6.02733 8.86364 6.23864L8.93182 6.30682C9.19964 6.56879 9.53979 6.74453 9.90842 6.81137C10.2771 6.87821 10.6573 6.83309 11 6.68182H11.0909C11.427 6.53777 11.7137 6.29859 11.9156 5.99371C12.1175 5.68884 12.2258 5.33158 12.2273 4.96591V4.77273C12.2273 4.16996 12.4667 3.59189 12.8929 3.16567C13.3192 2.73945 13.8972 2.5 14.5 2.5C15.1028 2.5 15.6808 2.73945 16.1071 3.16567C16.5333 3.59189 16.7727 4.16996 16.7727 4.77273V4.875C16.7742 5.24067 16.8825 5.59793 17.0844 5.9028C17.2863 6.20768 17.573 6.44686 17.9091 6.59091C18.2518 6.74218 18.632 6.7873 19.0007 6.72046C19.3693 6.65362 19.7095 6.47788 19.9773 6.21591L20.0455 6.14773C20.2565 5.93642 20.5072 5.76878 20.7831 5.65441C21.059 5.54004 21.3547 5.48117 21.6534 5.48117C21.9521 5.48117 22.2478 5.54004 22.5237 5.65441C22.7996 5.76878 23.0503 5.93642 23.2614 6.14773C23.4727 6.3588 23.6403 6.60946 23.7547 6.88536C23.8691 7.16127 23.9279 7.45701 23.9279 7.75568C23.9279 8.05435 23.8691 8.3501 23.7547 8.626C23.6403 8.90191 23.4727 9.15256 23.2614 9.36364L23.1932 9.43182C22.9312 9.69964 22.7555 10.0398 22.6886 10.4084C22.6218 10.7771 22.6669 11.1573 22.8182 11.5V11.5909C22.9622 11.927 23.2014 12.2137 23.5063 12.4156C23.8112 12.6175 24.1684 12.7258 24.5341 12.7273H24.7273C25.33 12.7273 25.9081 12.9667 26.3343 13.3929C26.7606 13.8192 27 14.3972 27 15C27 15.6028 26.7606 16.1808 26.3343 16.6071C25.9081 17.0333 25.33 17.2727 24.7273 17.2727H24.625C24.2593 17.2742 23.9021 17.3825 23.5972 17.5844C23.2923 17.7863 23.0531 18.073 22.9091 18.4091Z" stroke="#5C4B51" stroke-width="4" stroke-linecap="round" stroke-linejoin="round"/>
</svg>
